<svg width="28" height="29" viewBox="0 0 28 29" fill="none" xmlns="http://www.w3.org/2000/svg">
<path d="M18.7835 3.71993C18.6271 4.48984 18.6271 5.28335 18.7835 6.05326H5.263L14.0713 13.8256L19.9618 8.55226C20.4588 9.1671 21.0795 9.67926 21.7853 10.0514L14.0842 16.9476L4.66683 8.6386V22.3866H23.3335V10.6033C24.1034 10.7597 24.8969 10.7597 25.6668 10.6033V23.5533C25.6668 23.8627 25.5439 24.1594 25.3251 24.3782C25.1063 24.597 24.8096 24.7199 24.5002 24.7199H3.50016C3.19074 24.7199 2.894 24.597 2.6752 24.3782C2.45641 24.1594 2.3335 23.8627 2.3335 23.5533V4.8866C2.3335 4.57718 2.45641 4.28043 2.6752 4.06164C2.894 3.84285 3.19074 3.71993 3.50016 3.71993H18.7835ZM24.5002 8.3866C24.0405 8.3866 23.5854 8.29607 23.1608 8.12018C22.7361 7.94428 22.3503 7.68648 22.0253 7.36147C21.7003 7.03647 21.4425 6.65063 21.2666 6.22599C21.0907 5.80135 21.0002 5.34622 21.0002 4.8866C21.0002 4.42697 21.0907 3.97184 21.2666 3.5472C21.4425 3.12257 21.7003 2.73673 22.0253 2.41172C22.3503 2.08672 22.7361 1.82891 23.1608 1.65302C23.5854 1.47713 24.0405 1.3866 24.5002 1.3866C25.4284 1.3866 26.3187 1.75535 26.975 2.41172C27.6314 3.0681 28.0002 3.95834 28.0002 4.8866C28.0002 5.81485 27.6314 6.70509 26.975 7.36147C26.3187 8.01785 25.4284 8.3866 24.5002 8.3866Z" fill="#1E6ADC"/>
</svg>
