<svg width="28" height="29" viewBox="0 0 28 29" fill="none" xmlns="http://www.w3.org/2000/svg">
<path d="M24.5 19.3766V23.502C24.5001 23.7973 24.3882 24.0818 24.1869 24.2979C23.9855 24.514 23.7096 24.6456 23.415 24.6663C22.9052 24.7013 22.4887 24.72 22.1667 24.72C11.8568 24.72 3.5 16.3631 3.5 6.0533C3.5 5.7313 3.5175 5.3148 3.55367 4.80497C3.57434 4.51032 3.70601 4.23448 3.9221 4.03311C4.1382 3.83175 4.42263 3.71984 4.718 3.71997H8.84333C8.98805 3.71982 9.12765 3.77347 9.23502 3.87049C9.34239 3.96752 9.40986 4.10098 9.42433 4.24497C9.45117 4.5133 9.47567 4.7268 9.499 4.88897C9.73086 6.50705 10.206 8.08078 10.9083 9.5568C11.0192 9.79014 10.9468 10.069 10.7368 10.2183L8.21917 12.0173C9.75853 15.6042 12.617 18.4626 16.2038 20.002L18.0005 17.489C18.0739 17.3863 18.1811 17.3127 18.3032 17.2809C18.4254 17.2491 18.5549 17.2612 18.669 17.3151C20.1449 18.0161 21.7182 18.4901 23.3357 18.721C23.4978 18.7443 23.7113 18.77 23.9773 18.7956C24.1211 18.8104 24.2543 18.878 24.3511 18.9853C24.4479 19.0927 24.5013 19.2321 24.5012 19.3766H24.5Z" fill="#1E6ADC"/>
</svg>
