<svg width="67" height="43" viewBox="0 0 67 43" fill="none" xmlns="http://www.w3.org/2000/svg">
<path d="M8.74168 4.23673C15.8024 -1.0009 26.2364 -0.762362 32.9436 4.98643L32.9568 5.00006C29.0052 8.21011 26.319 12.9639 25.4831 18.0754C24.1351 16.7294 22.8333 15.339 21.4985 13.9794C20.9302 13.2705 19.7672 13.3455 19.2088 14.0305C17.1636 16.1296 15.1217 18.2288 13.0931 20.3415C12.4223 20.9413 12.4686 22.076 13.1096 22.6826C15.1184 24.8056 17.1669 26.8911 19.2055 28.9835C19.7903 29.6684 20.8972 29.7229 21.4985 29.0312C22.8432 27.6783 24.1582 26.2948 25.4831 24.9215C26.329 30.0024 28.9788 34.7391 32.9106 37.9423L33.0262 38.0309C29.1671 41.1149 24.2408 42.7983 19.3542 42.478C13.3607 42.2462 7.57206 39.0294 4.02685 34.0507C0.841776 29.6889 -0.549216 24.0048 0.197491 18.6036C0.924375 12.8582 4.11605 7.51494 8.74168 4.23673Z" fill="#3655A5"/>
<path fill-rule="evenodd" clip-rule="evenodd" d="M33.0027 4.96527C29.0035 8.13627 26.285 12.8322 25.439 17.8815C27.4921 19.908 30.4547 20.7092 33.2702 20.689C35.9017 20.5981 38.6704 19.8474 40.5797 17.9253C39.9979 14.7543 38.7807 11.6843 36.8681 9.08555C35.9281 7.73334 34.734 6.6041 33.5455 5.48021C33.3641 5.3087 33.1828 5.13731 33.0027 4.96527ZM32.5812 21.8604C29.9831 21.9243 27.3281 22.7996 25.4388 24.6443C26.2949 29.6633 28.9766 34.3424 32.9557 37.5067C36.9917 34.3525 39.7503 29.6162 40.5695 24.5433C38.4328 22.5572 35.4368 21.756 32.5812 21.8604Z" fill="#1E6ADC"/>
<path d="M33.0593 5.0065C37.2986 1.59562 42.8334 -0.0774538 48.1769 0.651746C53.359 1.25146 58.2411 4.06263 61.5046 8.25723C64.9955 12.629 66.6009 18.524 65.8856 24.1361C65.2427 29.7959 62.2232 35.1184 57.7598 38.4611C50.6823 44.0187 40.0412 43.8483 33.1417 38.0488L33.0264 37.9602C37.0052 34.7674 39.7248 29.9731 40.5324 24.838C41.9169 26.2521 43.2685 27.7037 44.6695 29.1008C45.2859 29.772 46.3672 29.6187 46.9375 28.9611C48.9285 26.9336 50.8965 24.8789 52.8711 22.8344C53.6293 22.1836 53.6656 20.8853 52.8843 20.2345C50.9097 18.1866 48.9318 16.1421 46.9506 14.0976C46.3869 13.3923 45.2694 13.2799 44.6332 13.9375C43.2256 15.2903 41.9038 16.7384 40.5423 18.1389C39.9687 14.9291 38.7688 11.8215 36.8832 9.19088C35.8152 7.61322 34.4142 6.33542 33.0725 5.02013L33.0593 5.0065Z" fill="#1E6ADC"/>
</svg>
